<?xml version="1.0" encoding="UTF-8"?>
<svg width="18px" height="18px" viewBox="0 0 18 18" version="1.1" xmlns="http://www.w3.org/2000/svg" xmlns:xlink="http://www.w3.org/1999/xlink">
    <title>Shape</title>
    <g id="Page-1" stroke="none" stroke-width="1" fill="none" fill-rule="evenodd">
        <g id="12.9″-iPad-Pro" transform="translate(-15.000000, -15.000000)">
            <path d="M32.64,24.2045455 C32.64,23.5663636 32.5827273,22.9527273 32.4763636,22.3636364 L24,22.3636364 L24,25.845 L28.8436364,25.845 C28.635,26.97 28.0009091,27.9231818 27.0477273,28.5613636 L27.0477273,30.8195455 L29.9563636,30.8195455 C31.6581818,29.2527273 32.64,26.9454545 32.64,24.2045455 L32.64,24.2045455 Z" id="Shape" fill="#4285F4"></path>
            <path d="M24,33 C26.43,33 28.4672727,32.1940909 29.9563636,30.8195455 L27.0477273,28.5613636 C26.2418182,29.1013636 25.2109091,29.4204545 24,29.4204545 C21.6559091,29.4204545 19.6718182,27.8372727 18.9640909,25.71 L15.9572727,25.71 L15.9572727,28.0418182 C17.4381818,30.9831818 20.4818182,33 24,33 L24,33 Z" id="Shape" fill="#34A853"></path>
            <path d="M18.9640909,25.71 C18.7840909,25.17 18.6818182,24.5931818 18.6818182,24 C18.6818182,23.4068182 18.7840909,22.83 18.9640909,22.29 L18.9640909,19.9581818 L15.9572727,19.9581818 C15.3477273,21.1731818 15,22.5477273 15,24 C15,25.4522727 15.3477273,26.8268182 15.9572727,28.0418182 L18.9640909,25.71 L18.9640909,25.71 Z" id="Shape" fill="#FBBC05"></path>
            <path d="M24,18.5795455 C25.3213636,18.5795455 26.5077273,19.0336364 27.4404545,19.9254545 L30.0218182,17.3440909 C28.4631818,15.8918182 26.4259091,15 24,15 C20.4818182,15 17.4381818,17.0168182 15.9572727,19.9581818 L18.9640909,22.29 C19.6718182,20.1627273 21.6559091,18.5795455 24,18.5795455 L24,18.5795455 Z" id="Shape" fill="#EA4335"></path>
            <polygon id="Shape" points="15 15 33 15 33 33 15 33"></polygon>
        </g>
    </g>
</svg>